<svg width="64" height="64" viewBox="0 0 64 64" fill="none" xmlns="http://www.w3.org/2000/svg">
    <path fill-rule="evenodd" clip-rule="evenodd"
          d="M36.6115 5.32155C37.3451 3.19093 39.3736 2 41.4188 2H48.5866C48.6342 2 48.6819 2.00065 48.7295 2.00194C48.8173 2.00432 48.9051 2.00889 48.9927 2.01563C50.8831 2.16111 52.6905 3.31802 53.3809 5.296C53.554 5.792 53.736 6.35976 53.9017 6.96944C57.7423 7.2791 61.1067 10.1064 61.5961 14.1271C62.1025 18.2874 62.1328 21.8507 61.6866 25.9697C61.6569 26.2443 61.625 26.5214 61.591 26.8012C61.1377 30.5351 58.2082 33.2463 54.7143 33.8657C54.2152 33.9542 53.7046 34 53.188 34H36.7991C32.6406 34 28.8777 31.033 28.383 26.7412C27.8738 22.323 27.8719 18.5955 28.38 14.192C28.8475 10.1402 32.2305 7.27396 36.1041 6.96826C36.266 6.36948 36.4429 5.81108 36.6115 5.32155ZM38 19.9412C38 16.0854 41.1564 13 45 13C48.8436 13 52 16.0854 52 19.9412C52 23.315 49.5834 26.099 46.4043 26.7422C45.9502 26.8341 45.4805 26.8824 45 26.8824C41.1564 26.8824 38 23.7969 38 19.9412Z"
          fill="url(#paint0_linear_2_3)"/>
    <path d="M16.0151 6H30.1568C28.6793 7.01396 27.4356 8.37105 26.5798 10H16.0151C10.8819 10 6.67175 13.8595 6.39529 18.8799C6.04499 25.2411 5.80247 33.59 6.22153 41.6183C6.46983 46.3752 10.5513 50 15.5392 50H42.4702C47.4347 50 51.5003 46.4103 51.7622 41.6859C51.8484 40.1302 51.9085 38.5626 51.9467 37H53.188C54.1265 37 55.0559 36.8857 55.9555 36.6664C55.9172 38.4107 55.8526 40.165 55.756 41.9073C55.364 48.9802 49.321 54 42.4702 54H39.5615L40.5615 58H44C45.1046 58 46 58.8954 46 60C46 61.1046 45.1046 62 44 62H16C14.8954 62 14 61.1046 14 60C14 58.8954 14.8954 58 16 58H19.4384L20.4384 54H15.5392C8.65137 54 2.59772 48.9295 2.22697 41.8268C1.7975 33.5992 2.04708 25.093 2.40134 18.6599C2.80032 11.4147 8.86431 6 16.0151 6Z"
          fill="url(#paint1_linear_2_3)"/>
    <defs>
        <linearGradient id="paint0_linear_2_3" x1="85.6874" y1="66.3302" x2="18.3816" y2="19.6558"
                        gradientUnits="userSpaceOnUse">
            <stop offset="0.003" stop-color="#FF37DF"/>
            <stop offset="1" stop-color="#6E00FF"/>
        </linearGradient>
        <linearGradient id="paint1_linear_2_3" x1="85.7502" y1="66.2394" x2="18.3188" y2="19.7466"
                        gradientUnits="userSpaceOnUse">
            <stop stop-color="#FF37DF"/>
            <stop offset="1" stop-color="#6E00FF"/>
        </linearGradient>
    </defs>
</svg>
