<svg width="217" height="120" viewBox="0 0 217 120" fill="none" xmlns="http://www.w3.org/2000/svg">
<path d="M157.44 11.1725C173.34 11.1725 187.47 18.7625 196.39 30.5225" stroke="#EC4899" stroke-width="20.5" stroke-linecap="round" stroke-linejoin="round"/>
<path d="M59.12 11.1725C86.11 11.1725 107.99 33.0525 107.99 60.0425" stroke="#EC4899" stroke-width="20.5" stroke-linecap="round" stroke-linejoin="round"/>
<path d="M108 60.0425C108 33.0525 129.88 11.1725 156.87 11.1725" stroke="#635BFF" stroke-width="20.5" stroke-linecap="round" stroke-linejoin="round"/>
<path d="M59.12 108.922C32.13 108.922 10.25 87.0425 10.25 60.0525" stroke="#635BFF" stroke-width="20.5" stroke-linecap="round" stroke-linejoin="round"/>
<path d="M10.25 60.0425C10.25 33.0525 32.13 11.1725 59.12 11.1725" stroke="#635BFF" stroke-width="20.5" stroke-linecap="round" stroke-linejoin="round"/>
<path d="M108 60.0425C108 87.0325 86.12 108.912 59.13 108.912" stroke="#635BFF" stroke-width="20.5" stroke-linecap="round" stroke-linejoin="round"/>
<path d="M156.87 108.922C129.88 108.922 108 87.0425 108 60.0525" stroke="#635BFF" stroke-width="20.5" stroke-linecap="round" stroke-linejoin="round"/>
<path d="M205.75 49.7325H158.11C152.42 49.7325 147.8 54.3525 147.8 60.0425C147.8 65.7325 152.42 70.3525 158.11 70.3525H194.04C189.52 86.6225 174.57 98.6025 156.88 98.6025C151.19 98.6025 146.57 103.222 146.57 108.912C146.57 114.602 151.19 119.222 156.88 119.222C172.69 119.222 187.55 113.062 198.73 101.892C209.91 90.7125 216.06 75.8525 216.06 60.0425C216.06 54.3525 211.44 49.7325 205.75 49.7325Z" fill="#635BFF"/>
<path d="M157.44 70.3025C163.106 70.3025 167.7 65.7089 167.7 60.0425C167.7 54.376 163.106 49.7825 157.44 49.7825C151.774 49.7825 147.18 54.376 147.18 60.0425C147.18 65.7089 151.774 70.3025 157.44 70.3025Z" fill="#EC4899"/>
</svg>
