<svg width="280" height="280" viewBox="0 0 280 280" fill="none" xmlns="http://www.w3.org/2000/svg">
    <rect x="7" y="57" width="265" height="165" rx="82.5" fill="currentColor"/>
    <path d="M234.995 129.912H188.453C182.894 129.912 178.381 134.454 178.381 140.049C178.381 145.643 182.894 150.185 188.453 150.185H223.555C219.139 166.182 204.534 177.961 187.251 177.961C181.693 177.961 177.179 182.503 177.179 188.097C177.179 193.692 181.693 198.234 187.251 198.234C202.697 198.234 217.215 192.178 228.137 181.195C239.06 170.203 245.068 155.593 245.068 140.049C245.068 134.454 240.554 129.912 234.995 129.912Z"
          fill="white"/>
    <path d="M91.744 188.097C118.112 188.097 139.488 166.585 139.488 140.049C139.488 113.512 118.112 92 91.744 92C65.3757 92 44 113.512 44 140.049C44 166.585 65.3757 188.097 91.744 188.097Z"
          stroke="white" stroke-width="20" stroke-linecap="round" stroke-linejoin="round"/>
    <path d="M44 140.049C44 113.512 65.3759 92 91.744 92" stroke="white" stroke-width="20.5" stroke-linecap="round"
          stroke-linejoin="round"/>
    <path d="M91.744 188.107C65.3759 188.107 44 166.595 44 140.058" stroke="white" stroke-width="20.5"
          stroke-linecap="round" stroke-linejoin="round"/>
    <path d="M139.498 140.049C139.498 166.585 118.122 188.097 91.7538 188.097" stroke="white" stroke-width="20.5"
          stroke-linecap="round" stroke-linejoin="round"/>
    <path d="M139.498 149.477C145.034 149.477 149.521 144.961 149.521 139.39C149.521 133.819 145.034 129.302 139.498 129.302C133.962 129.302 129.474 133.819 129.474 139.39C129.474 144.961 133.962 149.477 139.498 149.477Z"
          fill="white"/>
    <path d="M139.498 140.049C139.498 113.512 160.874 92 187.242 92" stroke="white" stroke-width="20.5"
          stroke-linecap="round" stroke-linejoin="round"/>
    <path d="M187.799 92C203.332 92 217.137 99.4624 225.851 111.025" stroke="white" stroke-width="20.5"
          stroke-linecap="round" stroke-linejoin="round"/>
    <path d="M187.242 188.107C160.874 188.107 139.498 166.595 139.498 140.058" stroke="white" stroke-width="20.5"
          stroke-linecap="round" stroke-linejoin="round"/>
    <path d="M187.799 150.136C193.334 150.136 197.822 145.62 197.822 140.049C197.822 134.477 193.334 129.961 187.799 129.961C182.263 129.961 177.775 134.477 177.775 140.049C177.775 145.62 182.263 150.136 187.799 150.136Z"
          fill="white"/>
    <path d="M91.744 92C118.112 92 139.488 113.512 139.488 140.049" stroke="white" stroke-width="20.5"
          stroke-linecap="round" stroke-linejoin="round"/>
</svg>
