<svg width="256" height="256" viewBox="0 0 256 256" fill="none" xmlns="http://www.w3.org/2000/svg">
<path fill-rule="evenodd" clip-rule="evenodd" d="M167.19 79.25C167.19 73.5891 171.779 69 177.44 69C196.679 69 213.78 78.1977 224.556 92.4056C227.978 96.9159 227.095 103.346 222.584 106.767C218.074 110.188 211.644 109.305 208.223 104.794C201.16 95.4823 190.001 89.5 177.44 89.5C171.779 89.5 167.19 84.9109 167.19 79.25Z" fill="#F20DA6"/>
<path fill-rule="evenodd" clip-rule="evenodd" d="M68.87 79.25C68.87 73.5891 73.4591 69 79.12 69C111.771 69 138.24 95.4691 138.24 128.12C138.24 133.781 133.651 138.37 127.99 138.37C122.329 138.37 117.74 133.781 117.74 128.12C117.74 106.791 100.449 89.5 79.12 89.5C73.4591 89.5 68.87 84.9109 68.87 79.25Z" fill="#F20DA6"/>
<path fill-rule="evenodd" clip-rule="evenodd" d="M176.87 89.5C155.541 89.5 138.25 106.791 138.25 128.12C138.25 133.781 133.661 138.37 128 138.37C122.339 138.37 117.75 133.781 117.75 128.12C117.75 95.4691 144.219 69 176.87 69C182.531 69 187.12 73.5891 187.12 79.25C187.12 84.9109 182.531 89.5 176.87 89.5Z" fill="#3706F9"/>
<path fill-rule="evenodd" clip-rule="evenodd" d="M30.25 117.88C35.9109 117.88 40.5 122.469 40.5 128.13C40.5 149.459 57.7909 166.75 79.12 166.75C84.7809 166.75 89.37 171.339 89.37 177C89.37 182.661 84.7809 187.25 79.12 187.25C46.4691 187.25 20 160.781 20 128.13C20 122.469 24.5891 117.88 30.25 117.88Z" fill="#3706F9"/>
<path fill-rule="evenodd" clip-rule="evenodd" d="M79.12 89.5C57.7909 89.5 40.5 106.791 40.5 128.12C40.5 133.781 35.9109 138.37 30.25 138.37C24.5891 138.37 20 133.781 20 128.12C20 95.4691 46.4691 69 79.12 69C84.7809 69 89.37 73.5891 89.37 79.25C89.37 84.9109 84.7809 89.5 79.12 89.5Z" fill="#3706F9"/>
<path fill-rule="evenodd" clip-rule="evenodd" d="M128 117.87C133.661 117.87 138.25 122.459 138.25 128.12C138.25 160.771 111.781 187.24 79.13 187.24C73.4691 187.24 68.88 182.651 68.88 176.99C68.88 171.329 73.4691 166.74 79.13 166.74C100.459 166.74 117.75 149.449 117.75 128.12C117.75 122.459 122.339 117.87 128 117.87Z" fill="#3706F9"/>
<path fill-rule="evenodd" clip-rule="evenodd" d="M128 117.88C133.661 117.88 138.25 122.469 138.25 128.13C138.25 149.459 155.541 166.75 176.87 166.75C182.531 166.75 187.12 171.339 187.12 177C187.12 182.661 182.531 187.25 176.87 187.25C144.219 187.25 117.75 160.781 117.75 128.13C117.75 122.469 122.339 117.88 128 117.88Z" fill="#3706F9"/>
<path d="M225.75 117.81H178.11C172.42 117.81 167.8 122.43 167.8 128.12C167.8 133.81 172.42 138.43 178.11 138.43H214.04C209.52 154.7 194.57 166.68 176.88 166.68C171.19 166.68 166.57 171.3 166.57 176.99C166.57 182.68 171.19 187.3 176.88 187.3C192.69 187.3 207.55 181.14 218.73 169.97C229.91 158.79 236.06 143.93 236.06 128.12C236.06 122.43 231.44 117.81 225.75 117.81Z" fill="#3706F9"/>
<path d="M177.44 138.38C183.106 138.38 187.7 133.786 187.7 128.12C187.7 122.454 183.106 117.86 177.44 117.86C171.773 117.86 167.18 122.454 167.18 128.12C167.18 133.786 171.773 138.38 177.44 138.38Z" fill="#F20DA6"/>
</svg>
